<svg width="300" height="100" xmlns="http://www.w3.org/2000/svg">
  <g fill="white">
    <!-- AE Logo -->
    <path d="M48,20 L72,20 L95,70 L75,70 L70,60 L50,60 L45,70 L25,70 L48,20 Z M60,30 L53,45 L67,45 L60,30 Z" />
    <path d="M100,20 L160,20 L160,35 L120,35 L120,40 L155,40 L155,55 L120,55 L120,60 L160,60 L160,70 L100,70 L100,20 Z" />
    <!-- Vertical Line -->
    <rect x="180" y="20" width="2" height="50" />
    <!-- Applied Engineering Text -->
    <text x="195" y="40" font-family="Helvetica" font-size="24" font-weight="bold">Applied</text>
    <text x="195" y="65" font-family="Helvetica" font-size="24" font-weight="bold">Engineering</text>
  </g>
</svg> 