<svg width="600" height="600" xmlns="http://www.w3.org/2000/svg">
  <defs>
    <linearGradient id="grad1" x1="0%" y1="0%" x2="100%" y2="100%">
      <stop offset="0%" style="stop-color:#2D0B5D;stop-opacity:1" />
      <stop offset="100%" style="stop-color:#9B6DFF;stop-opacity:1" />
    </linearGradient>
    <linearGradient id="grad2" x1="0%" y1="0%" x2="100%" y2="100%">
      <stop offset="0%" style="stop-color:#9B6DFF;stop-opacity:1" />
      <stop offset="100%" style="stop-color:#FFFFFF;stop-opacity:0.5" />
    </linearGradient>
  </defs>
  
  <!-- Background Circle -->
  <circle cx="300" cy="300" r="280" fill="url(#grad1)" />
  
  <!-- Decorative Elements -->
  <circle cx="300" cy="300" r="200" fill="none" stroke="#FFFFFF" stroke-width="2" stroke-dasharray="10,10" />
  <circle cx="300" cy="300" r="150" fill="none" stroke="#FFFFFF" stroke-width="2" />
  
  <!-- Gears representing engineering -->
  <g transform="translate(200,200)">
    <circle cx="0" cy="0" r="60" fill="url(#grad2)" />
    <circle cx="0" cy="0" r="40" fill="none" stroke="#FFFFFF" stroke-width="3" />
    <circle cx="0" cy="0" r="15" fill="#FFFFFF" />
    
    <!-- Gear teeth -->
    <rect x="-5" y="-70" width="10" height="20" fill="#FFFFFF" />
    <rect x="-5" y="50" width="10" height="20" fill="#FFFFFF" />
    <rect x="-70" y="-5" width="20" height="10" fill="#FFFFFF" />
    <rect x="50" y="-5" width="20" height="10" fill="#FFFFFF" />
    
    <!-- Diagonal teeth -->
    <rect x="-50" y="-50" width="15" height="10" fill="#FFFFFF" transform="rotate(45)" />
    <rect x="35" y="-50" width="15" height="10" fill="#FFFFFF" transform="rotate(45)" />
    <rect x="-50" y="40" width="15" height="10" fill="#FFFFFF" transform="rotate(45)" />
    <rect x="35" y="40" width="15" height="10" fill="#FFFFFF" transform="rotate(45)" />
  </g>
  
  <!-- Smaller gear -->
  <g transform="translate(350,250)">
    <circle cx="0" cy="0" r="40" fill="url(#grad2)" />
    <circle cx="0" cy="0" r="25" fill="none" stroke="#FFFFFF" stroke-width="2" />
    <circle cx="0" cy="0" r="10" fill="#FFFFFF" />
    
    <!-- Gear teeth -->
    <rect x="-4" y="-45" width="8" height="15" fill="#FFFFFF" />
    <rect x="-4" y="30" width="8" height="15" fill="#FFFFFF" />
    <rect x="-45" y="-4" width="15" height="8" fill="#FFFFFF" />
    <rect x="30" y="-4" width="15" height="8" fill="#FFFFFF" />
    
    <!-- Diagonal teeth -->
    <rect x="-32" y="-32" width="12" height="8" fill="#FFFFFF" transform="rotate(45)" />
    <rect x="20" y="-32" width="12" height="8" fill="#FFFFFF" transform="rotate(45)" />
    <rect x="-32" y="24" width="12" height="8" fill="#FFFFFF" transform="rotate(45)" />
    <rect x="20" y="24" width="12" height="8" fill="#FFFFFF" transform="rotate(45)" />
  </g>
  
  <!-- Circuit lines -->
  <path d="M100,300 L150,300 L150,350 L200,350 L200,400 L250,400" stroke="#FFFFFF" stroke-width="2" fill="none" />
  <path d="M500,300 L450,300 L450,250 L400,250 L400,200 L350,200" stroke="#FFFFFF" stroke-width="2" fill="none" />
  <path d="M300,100 L300,150 L250,150 L250,200" stroke="#FFFFFF" stroke-width="2" fill="none" />
  <path d="M300,500 L300,450 L350,450 L350,400" stroke="#FFFFFF" stroke-width="2" fill="none" />
  
  <!-- Circuit nodes -->
  <circle cx="150" cy="300" r="5" fill="#FFFFFF" />
  <circle cx="150" cy="350" r="5" fill="#FFFFFF" />
  <circle cx="200" cy="350" r="5" fill="#FFFFFF" />
  <circle cx="200" cy="400" r="5" fill="#FFFFFF" />
  <circle cx="250" cy="400" r="5" fill="#FFFFFF" />
  <circle cx="450" cy="300" r="5" fill="#FFFFFF" />
  <circle cx="450" cy="250" r="5" fill="#FFFFFF" />
  <circle cx="400" cy="250" r="5" fill="#FFFFFF" />
  <circle cx="400" cy="200" r="5" fill="#FFFFFF" />
  <circle cx="350" cy="200" r="5" fill="#FFFFFF" />
  <circle cx="300" cy="150" r="5" fill="#FFFFFF" />
  <circle cx="250" cy="150" r="5" fill="#FFFFFF" />
  <circle cx="250" cy="200" r="5" fill="#FFFFFF" />
  <circle cx="300" cy="450" r="5" fill="#FFFFFF" />
  <circle cx="350" cy="450" r="5" fill="#FFFFFF" />
  <circle cx="350" cy="400" r="5" fill="#FFFFFF" />
</svg> 